<svg xmlns="http://www.w3.org/2000/svg" xmlns:xlink="http://www.w3.org/1999/xlink">
<defs>
<symbol id="home-svg-icon">
<path d="M18,21H6c-1.657,0-3-1.343-3-3V8.765c0-1.09,0.591-2.093,1.543-2.622l6-3.333c0.906-0.503,2.008-0.503,2.914,0l6,3.333C20.409,6.672,21,7.676,21,8.765V18C21,19.657,19.657,21,18,21z" opacity=".35" fill="#FFE7E7" />
<path d="M15,21H9v-6c0-1.105,0.895-2,2-2h2c1.105,0,2,0.895,2,2V21z" fill="#FFE7E7" />
</symbol>

<symbol id="quote-svg-icon" xmlns="http://www.w3.org/2000/svg" viewBox="0 0 32 32">
  <path d="M28.28125 2.28125L19 11.59375L19 3L17 3L17 15L29 15L29 13L20.40625 13L29.71875 3.71875 Z M 3 17L3 19L11.59375 19L2.28125 28.28125L3.71875 29.71875L13 20.40625L13 29L15 29L15 17Z" fill="#FFE7E7" />
</symbol>

<symbol id="chart-svg-icon" xmlns="http://www.w3.org/2000/svg" viewBox="0 0 24 24">
  <path d="M6,21H4c-1.105,0-2-0.895-2-2v-1c0-1.105,0.895-2,2-2h2c1.105,0,2,0.895,2,2v1C8,20.105,7.105,21,6,21z" opacity=".35" fill="#FFE7E7" />
  <path d="M13,21h-2c-1.105,0-2-0.895-2-2v-4c0-1.105,0.895-2,2-2h2c1.105,0,2,0.895,2,2v4C15,20.105,14.105,21,13,21z" opacity=".35" fill="#FFE7E7" />
  <path d="M20,21h-2c-1.105,0-2-0.895-2-2v-7c0-1.105,0.895-2,2-2h2c1.105,0,2,0.895,2,2v7C22,20.105,21.105,21,20,21z" opacity=".35" fill="#FFE7E7" />
  <path d="M21,2.504C21.001,2.225,20.775,1.999,20.496,2l-3.041,0.014c-0.405,0.002-0.607,0.492-0.32,0.779l3.073,3.073c0.287,0.287,0.777,0.085,0.779-0.32L21,2.504z" fill="#FFE7E7" />
  <path d="M4,12c-0.256,0-0.512-0.098-0.707-0.293c-0.391-0.391-0.391-1.023,0-1.414l3-3c0.268-0.268,0.663-0.362,1.023-0.242L9.73,7.856l2.563-2.563c0.268-0.268,0.664-0.361,1.023-0.242l2.414,0.805l2.563-2.563c0.391-0.391,1.023-0.391,1.414,0s0.391,1.023,0,1.414l-3,3c-0.268,0.268-0.663,0.362-1.023,0.242L13.27,7.144l-2.563,2.563c-0.268,0.268-0.664,0.361-1.023,0.242L7.27,9.144l-2.563,2.563C4.512,11.902,4.256,12,4,12z" fill="#FFE7E7" />
</symbol>

<symbol id="trade-svg-icon" xmlns="http://www.w3.org/2000/svg" viewBox="0 0 24 24">
  <path d="M6,19H4c-1.105,0-2-0.895-2-2v-5c0-1.105,0.895-2,2-2h2c1.105,0,2,0.895,2,2v5C8,18.105,7.105,19,6,19z" opacity=".35" fill="#FFE7E7" />
  <path d="M20,21h-2c-1.105,0-2-0.895-2-2v-5c0-1.105,0.895-2,2-2h2c1.105,0,2,0.895,2,2v5C22,20.105,21.105,21,20,21z" opacity=".35" fill="#FFE7E7" />
  <path d="M13,12h-2c-1.105,0-2-0.895-2-2V5c0-1.105,0.895-2,2-2h2c1.105,0,2,0.895,2,2v5C15,11.105,14.105,12,13,12z" opacity=".35" fill="#FFE7E7" />
  <path d="M5,21L5,21c-0.552,0-1-0.448-1-1v-1h2v1C6,20.552,5.552,21,5,21z" fill="#FFE7E7" />
  <path d="M5,8L5,8c0.552,0,1,0.448,1,1v1H4V9C4,8.448,4.448,8,5,8z" fill="#FFE7E7" />
  <path d="M12,14L12,14c-0.552,0-1-0.448-1-1v-1h2v1C13,13.552,12.552,14,12,14z" fill="#FFE7E7" />
  <path d="M12,1L12,1c0.552,0,1,0.448,1,1v1h-2V2C11,1.448,11.448,1,12,1z" fill="#FFE7E7" />
  <path d="M19,23L19,23c-0.552,0-1-0.448-1-1v-1h2v1C20,22.552,19.552,23,19,23z" fill="#FFE7E7" />
  <path d="M19,10L19,10c0.552,0,1,0.448,1,1v1h-2v-1C18,10.448,18.448,10,19,10z" fill="#FFE7E7" />
</symbol>


<symbol id="news-svg-icon" xmlns="http://www.w3.org/2000/svg" viewBox="0 0 24 24">
<path d="M18,19V6c0-1.657-1.343-3-3-3H5C3.343,3,2,4.343,2,6v12c0,1.657,1.343,3,3,3h15C18.895,21,18,20.105,18,19z" opacity=".35" fill="#FFE7E7" />
<path d="M14,14H6c-0.552,0-1-0.448-1-1v0c0-0.552,0.448-1,1-1h8c0.552,0,1,0.448,1,1v0C15,13.552,14.552,14,14,14z" fill="#FFE7E7" />
<path d="M14,18H6c-0.552,0-1-0.448-1-1v0c0-0.552,0.448-1,1-1h8c0.552,0,1,0.448,1,1v0C15,17.552,14.552,18,14,18z" fill="#FFE7E7" />
<path d="M20,7h-2v12c0,1.105,0.895,2,2,2h0c1.105,0,2-0.895,2-2V9C22,7.895,05,7,20,7z" fill="#FFE7E7" />
<path d="M13.5,7c-0.386,0-6.614,0-7,0C5.672,7,5,7.672,5,8.5S5.672,10,6.5,10c0.386,0,6.614,0,7,0c0.828,0,1.5-0.672,1.5-1.5S14.328,7,13.5,7z" fill="#FFE7E7" />21.1
</symbol>

<symbol id="account-svg-icon" xmlns="http://www.w3.org/2000/svg" viewBox="0 0 24 24">
  <rect width="10" height="4" x="7" y="15" opacity=".35" fill="#FFE7E7" />
  <circle cx="12" cy="7" r="5" opacity=".35" fill="#FFE7E7" />
  <path d="M20.943,17.406C20.67,15.981,19.343,15,17.892,15H15l-3,4l-3-4H7.001c-2.344,0-3.671,0.981-3.944,2.406C2.689,19.323,4.149,21,6,21h12C19.851,21,21.311,19.323,20.943,17.406z" fill="#FFE7E7" />
</symbol>

<symbol id="arrow-down-svg-icon" xmlns="http://www.w3.org/2000/svg" viewBox="0 0 16 16">
  <path d="M1.726563 4.015625L1.023438 4.734375L7.5 11.074219L13.972656 4.734375L13.277344 4.015625L7.5 9.675781Z" fill="#FFE7E7" />
</symbol>

<symbol id="france-flag-svg-icon" xmlns="http://www.w3.org/2000/svg" viewBox="0 0 48 48"><path fill="#ECEFF1" d="M16 9H32V39H16z"/><path fill="#FF3D00" d="M32 9H46V39H32z"/><path fill="#3F51B5" d="M2 9H16V39H2z"/></symbol>
<symbol id="hongkong-flag-svg-icon" xmlns="http://www.w3.org/2000/svg" viewBox="0 0 48 48"><path fill="#ff3d00" d="M2 9H46V39H2z"/><path fill="#eceff1" d="M23.919,23.769c-6.507-2.739-3.623-11.178,2.601-10.754c-1.259,0.644-1.442,1.847-0.723,2.96 c0.805,1.247-0.074,3.253-1.163,3.741C22.846,20.518,22.487,22.656,23.919,23.769L23.919,23.769z"/><path fill="#ff3d00" d="M23.567 17.675l-.366.572-.133-.666-.66-.17.595-.332-.041-.677.5.461.634-.249-.285.616.433.524L23.567 17.675zM23.955 23.698c-.787-.402-1.422-1.241-1.698-2.243-.316-1.149-.134-2.385.5-3.388l-.136-.086c-.658 1.042-.847 2.323-.518 3.516.292 1.06.941 1.914 1.78 2.343L23.955 23.698z"/><path fill="#eceff1" d="M23.925,23.771c0.605-7.009,9.557-6.885,11.075-0.86c-1.004-0.993-2.209-0.795-3.051,0.231 c-0.942,1.148-3.13,0.935-3.932,0.055C26.699,21.75,24.546,22.071,23.925,23.771L23.925,23.771z"/><path fill="#ff3d00" d="M29.637 21.554l-.66-.17.595-.331-.042-.678.501.461.634-.249-.286.616.434.524-.677-.08L29.77 22.22 29.637 21.554zM24.005 23.784c.141-.87.746-1.73 1.617-2.301 1-.655 2.236-.864 3.39-.574l.04-.156c-1.199-.301-2.481-.084-3.519.596-.922.604-1.538 1.482-1.688 2.409L24.005 23.784z"/><path fill="#eceff1" d="M23.926,23.778c6.881-1.593,9.529,6.923,4.244,10.222c0.638-1.258,0.076-2.338-1.163-2.818 c-1.387-0.538-1.86-2.675-1.268-3.707C26.713,25.78,25.741,23.841,23.926,23.778L23.926,23.778z"/><path fill="#ff3d00" d="M27.808 28.502l-.042-.677.5.461.634-.249-.286.617.433.524-.677-.08-.366.572-.133-.665-.659-.17L27.808 28.502zM23.938 23.857c.874-.135 1.883.172 2.698.82.934.745 1.516 1.851 1.596 3.034l.161-.01c-.083-1.228-.687-2.375-1.656-3.148-.862-.687-1.891-.998-2.823-.854L23.938 23.857z"/><path fill="#eceff1" d="M23.92,23.78c3.648,6.024-3.667,11.164-8.452,7.178c1.399,0.216,2.256-0.65,2.332-1.972 c0.085-1.48,1.98-2.589,3.149-2.346C22.869,27.038,24.42,25.519,23.92,23.78L23.92,23.78z"/><path fill="#ff3d00" d="M20.607 28.916l.634-.249-.286.616.434.524-.677-.08L20.346 30.3l-.132-.666-.66-.17.594-.332-.041-.677L20.607 28.916zM23.848 23.816c.399.786.418 1.836.05 2.808-.423 1.115-1.299 2.008-2.404 2.449l.06.149c1.147-.458 2.056-1.384 2.495-2.541.389-1.029.369-2.099-.057-2.937L23.848 23.816z"/><path fill="#eceff1" d="M23.915,23.775c-4.627,5.317-11.796-0.023-9.467-5.786c0.226,1.391,1.318,1.936,2.604,1.599 c1.44-0.377,3.084,1.076,3.214,2.257C20.479,23.787,22.41,24.787,23.915,23.775L23.915,23.775z"/><path fill="#ff3d00" d="M17.986 22.225l.433.523-.677-.08-.366.573-.133-.666-.66-.17.595-.331-.042-.677.5.46.634-.248L17.986 22.225zM23.859 23.718c-.627.621-1.624.963-2.667.915-1.195-.056-2.319-.61-3.082-1.52l-.124.103c.792.945 1.958 1.52 3.198 1.578 1.103.051 2.119-.299 2.788-.961L23.859 23.718z"/>
</symbol>

<symbol id="star-rating-svg-icon" xmlns="http://www.w3.org/2000/svg" viewBox="0 0 50 50">
  <path d="M10.2,48.6c-0.2,0-0.4-0.1-0.6-0.2c-0.3-0.2-0.5-0.7-0.4-1.1l4.4-16.4L0.4,20.2C0,20-0.1,19.5,0,19.1 c0.1-0.4,0.5-0.7,0.9-0.7l17-0.9l6.1-15.9C24.2,1.3,24.6,1,25,1c0.4,0,0.8,0.3,0.9,0.6l6.1,15.9l17,0.9c0.4,0,0.8,0.3,0.9,0.7 c0.1,0.4,0,0.8-0.3,1.1L36.4,30.9l4.4,16.4c0.1,0.4,0,0.8-0.4,1.1c-0.3,0.2-0.8,0.3-1.1,0L25,39.2l-14.3,9.2 C10.5,48.6,10.4,48.6,10.2,48.6z"/>
</symbol>

<symbol id="list-svg-icon" xmlns="http://www.w3.org/2000/svg" viewBox="0 0 128 128">
  <path d="M29 77c7.2 0 13-5.8 13-13s-5.8-13-13-13-13 5.8-13 13S21.8 77 29 77zM29 57c3.9 0 7 3.1 7 7s-3.1 7-7 7-7-3.1-7-7S25.1 57 29 57zM29 112c7.2 0 13-5.8 13-13s-5.8-13-13-13-13 5.8-13 13S21.8 112 29 112zM29 92c3.9 0 7 3.1 7 7s-3.1 7-7 7-7-3.1-7-7S25.1 92 29 92zM29 42c7.2 0 13-5.8 13-13s-5.8-13-13-13-13 5.8-13 13S21.8 42 29 42zM29 22c3.9 0 7 3.1 7 7s-3.1 7-7 7-7-3.1-7-7S25.1 22 29 22zM54 32h54c1.7 0 3-1.3 3-3s-1.3-3-3-3H54c-1.7 0-3 1.3-3 3S52.3 32 54 32zM54 67h54c1.7 0 3-1.3 3-3s-1.3-3-3-3H54c-1.7 0-3 1.3-3 3S52.3 67 54 67zM54 102h54c1.7 0 3-1.3 3-3s-1.3-3-3-3H54c-1.7 0-3 1.3-3 3S52.3 102 54 102z"  />
</symbol>

<symbol id="close-icon-svg" xmlns="http://www.w3.org/2000/svg" viewBox="0 0 16 16">
  <path d="M2.75 2.042969L2.042969 2.75L2.398438 3.101563L7.292969 8L2.042969 13.25L2.75 13.957031L8 8.707031L12.894531 13.605469L13.25 13.957031L13.957031 13.25L13.605469 12.894531L8.707031 8L13.957031 2.75L13.25 2.042969L8 7.292969L3.101563 2.398438Z" />
</symbol>

<symbol id="eye-svg-icon" xmlns="http://www.w3.org/2000/svg" viewBox="0 0 50 50">
  <path d="M25 12C11.667969 12 1.25 24.34375 1.25 24.34375C0.921875 24.71875 0.921875 25.28125 1.25 25.65625C1.25 25.65625 11.667969 38 25 38C38.332031 38 48.75 25.65625 48.75 25.65625C49.078125 25.28125 49.078125 24.71875 48.75 24.34375C48.75 24.34375 38.332031 12 25 12 Z M 25 14C27.628906 14 30.140625 14.542969 32.46875 15.375C34.03125 17.140625 35 19.449219 35 22C35 27.535156 30.535156 32 25 32C19.464844 32 15 27.535156 15 22C15 19.449219 15.9375 17.140625 17.5 15.375C19.835938 14.539063 22.363281 14 25 14 Z M 14.1875 16.84375C13.4375 18.40625 13 20.15625 13 22C13 28.617188 18.382813 34 25 34C31.617188 34 37 28.617188 37 22C37 20.164063 36.582031 18.40625 35.84375 16.84375C41.492188 19.714844 45.554688 23.878906 46.59375 25C44.96875 26.757813 35.972656 36 25 36C14.027344 36 5.03125 26.757813 3.40625 25C4.445313 23.875 8.527344 19.714844 14.1875 16.84375 Z M 25 17C22.238281 17 20 19.238281 20 22C20 24.761719 22.238281 27 25 27C27.761719 27 30 24.761719 30 22C30 19.238281 27.761719 17 25 17Z"/>
</symbol>

<symbol id="closed-eye-svg-icon" xmlns="http://www.w3.org/2000/svg" viewBox="0 0 50 50">
  <path d="M25.144531 8C19.103964 8 13.561453 10.431954 9.2792969 14.439453 A 1.0001 1.0001 0 1 0 10.646484 15.898438C14.596328 12.201935 19.639099 10 25.144531 10C30.622398 10 35.641117 12.180148 39.582031 15.84375 A 1.0001 1.0001 0 1 0 40.943359 14.378906C36.670274 10.406508 31.154664 8 25.144531 8 z M 45.490234 20.9375 A 1.0001 1.0001 0 0 0 44.556641 21.625C40.545678 29.071912 33.337413 34 25.117188 34C16.915226 34 9.721572 29.091708 5.7050781 21.671875 A 1.0001 1.0001 0 0 0 3.7578125 22L3.7578125 22.048828 A 1.0001 1.0001 0 0 0 3.875 22.521484C5.2332071 25.057502 6.9512191 27.330506 8.9472656 29.257812L3.2695312 35.316406 A 1.0004426 1.0004426 0 0 0 4.7304688 36.683594L10.441406 30.587891C12.090811 31.948408 13.894282 33.09259 15.822266 33.96875L12.101562 41.560547 A 1.0001549 1.0001549 0 1 0 13.898438 42.439453L17.683594 34.712891C19.691189 35.420885 21.807993 35.849597 24.001953 35.958984 A 1.0001 1.0001 0 0 0 24 36L24 44 A 1.0001 1.0001 0 1 0 26 44L26 36 A 1.0001 1.0001 0 0 0 25.998047 35.966797C28.264048 35.87761 30.449568 35.441539 32.519531 34.716797L36.09375 42.419922 A 1.0001 1.0001 0 1 0 37.90625 41.580078L34.376953 33.96875C36.184396 33.152619 37.884395 32.108088 39.449219 30.863281L45.292969 36.707031 A 1.0001 1.0001 0 0 0 46.109375 37.009766 A 1.0001 1.0001 0 0 0 46.207031 36.996094 A 1.0001 1.0001 0 0 0 46.707031 35.292969L40.964844 29.550781C43.109605 27.548898 44.953216 25.160853 46.386719 22.470703 A 1.0001 1.0001 0 0 0 46.505859 22L46.505859 21.951172 A 1.0001 1.0001 0 0 0 45.490234 20.9375 z"/>
</symbol  >
</defs>
</svg>